<?xml version="1.0" standalone="no"?>
<!DOCTYPE svg PUBLIC "-//W3C//DTD SVG 20010904//EN"
 "http://www.w3.org/TR/2001/REC-SVG-20010904/DTD/svg10.dtd">
<svg version="1.0" xmlns="http://www.w3.org/2000/svg"
 width="512.000000pt" height="512.000000pt" viewBox="0 0 512.000000 512.000000"
 preserveAspectRatio="xMidYMid meet">
<metadata>
Created by potrace 1.11, written by Peter Selinger 2001-2013
</metadata>
<g transform="translate(0.000000,512.000000) scale(0.100000,-0.100000)"
fill="#000000" stroke="none">
<path d="M185 4941 c-77 -19 -140 -76 -169 -152 -15 -40 -16 -222 -14 -2254 3
-2039 4 -2212 20 -2240 21 -39 74 -92 112 -113 29 -16 203 -17 2427 -17 l2396
0 49 30 c30 19 60 49 79 79 l30 49 3 2206 c2 1720 0 2216 -10 2251 -16 58 -96
141 -154 158 -32 9 -573 12 -2390 11 -1292 -1 -2362 -4 -2379 -8z"/>
</g>
</svg>
